<?xml version="1.0" standalone="no"?>
<!DOCTYPE svg PUBLIC "-//W3C//DTD SVG 20010904//EN"
 "http://www.w3.org/TR/2001/REC-SVG-20010904/DTD/svg10.dtd">
<svg version="1.0" xmlns="http://www.w3.org/2000/svg"
 width="16.000000pt" height="16.000000pt" viewBox="0 0 16.000000 16.000000"
 preserveAspectRatio="xMidYMid meet">
<metadata>
Created by potrace 1.11, written by Peter Selinger 2001-2013
</metadata>
<g transform="translate(0.000000,16.000000) scale(0.002083,-0.002083)"
fill="#000000" stroke="none">
<path d="M0 6997 l0 -52 93 1 c50 1 100 5 110 9 9 4 30 4 45 1 15 -4 38 -8 52
-9 14 -2 26 -10 28 -20 5 -23 23 -21 29 3 3 11 8 21 12 21 13 3 48 7 121 13
41 3 102 9 135 12 118 13 127 12 144 -21 9 -16 20 -33 26 -37 5 -4 7 -10 3
-13 -3 -3 0 -30 8 -58 8 -29 14 -64 14 -79 0 -15 6 -31 13 -35 7 -4 19 -28 26
-53 11 -42 28 -86 52 -135 5 -11 12 -31 14 -45 3 -14 9 -26 15 -28 5 -2 10
-12 10 -23 0 -10 5 -19 10 -19 6 0 10 -6 10 -14 0 -8 6 -21 13 -28 7 -7 21
-33 32 -58 10 -25 27 -56 37 -69 10 -13 18 -29 18 -36 0 -7 6 -18 14 -24 7 -6
19 -32 26 -56 7 -25 17 -45 21 -45 5 0 9 -11 9 -24 0 -13 5 -26 11 -28 7 -2
12 -18 13 -36 0 -18 4 -32 8 -32 3 0 12 -17 19 -37 6 -21 15 -42 19 -48 4 -5
11 -26 15 -45 4 -19 16 -47 26 -62 11 -14 19 -33 19 -42 0 -9 5 -16 10 -16 6
0 10 -7 10 -15 0 -9 9 -34 21 -56 11 -23 18 -47 15 -54 -2 -7 6 -23 19 -35 12
-12 26 -35 29 -52 3 -17 15 -39 27 -49 11 -9 20 -21 21 -26 0 -4 11 -27 25
-51 14 -23 22 -49 19 -57 -3 -10 1 -15 14 -15 12 0 21 -10 25 -30 4 -16 11
-30 16 -30 5 0 9 -9 9 -20 0 -11 6 -23 14 -26 8 -3 17 -17 21 -32 3 -14 16
-39 27 -55 11 -16 23 -49 26 -74 3 -33 10 -47 23 -50 19 -5 82 -116 72 -127
-4 -3 -1 -6 5 -6 6 0 17 -18 23 -40 7 -22 16 -40 21 -40 4 0 8 -9 8 -19 0 -11
5 -23 11 -27 6 -3 9 -17 7 -29 -3 -14 2 -28 13 -36 10 -7 16 -16 14 -19 -2 -4
3 -18 13 -31 9 -13 18 -31 19 -39 6 -29 12 -85 12 -112 1 -21 7 -29 25 -34 25
-6 40 -29 31 -44 -3 -5 -1 -11 5 -15 5 -3 10 -15 10 -26 0 -10 4 -19 9 -19 15
0 18 -31 8 -69 -5 -21 -5 -42 1 -55 5 -12 14 -33 21 -48 6 -16 17 -28 26 -28
8 0 15 -7 15 -15 0 -8 4 -15 9 -15 5 0 14 -14 21 -31 10 -22 10 -33 1 -42 -14
-14 -14 -27 -1 -27 15 0 50 -33 50 -47 0 -7 9 -21 20 -30 22 -20 26 -43 8 -44
-7 0 -3 -4 10 -10 15 -5 22 -15 20 -26 -2 -10 2 -23 10 -29 8 -5 15 -22 15
-37 1 -15 6 -27 11 -27 5 0 6 -13 3 -28 -4 -22 1 -35 24 -60 17 -18 27 -32 24
-32 -3 0 4 -19 16 -41 12 -25 19 -55 17 -73 -2 -20 3 -39 12 -48 20 -22 80
-144 80 -164 0 -4 6 -15 13 -23 25 -29 62 -134 49 -139 -19 -6 -14 -18 11 -29
19 -9 65 -104 73 -150 1 -7 9 -20 18 -29 9 -8 16 -26 16 -40 0 -13 4 -24 10
-24 5 0 13 -12 16 -27 4 -16 14 -39 23 -53 19 -29 41 -88 41 -112 0 -10 3 -18
8 -18 4 0 13 -15 20 -32 7 -18 18 -40 23 -48 5 -8 12 -22 15 -30 3 -8 21 -46
40 -84 19 -38 34 -73 34 -78 0 -5 11 -34 25 -64 14 -30 25 -65 25 -78 0 -14 5
-26 10 -28 6 -2 17 -30 26 -63 8 -33 18 -69 23 -80 20 -50 51 -152 51 -167 0
-10 3 -18 8 -18 4 0 13 -15 21 -32 8 -18 26 -57 40 -87 19 -39 22 -56 13 -59
-6 -2 -12 -8 -12 -14 0 -5 9 -7 19 -3 11 3 22 1 26 -5 10 -16 46 -12 61 8 12
15 15 15 24 2 8 -13 10 -13 10 1 0 9 -6 19 -13 22 -22 8 11 137 35 137 20 0
24 20 7 37 -7 7 -7 23 2 54 7 24 13 47 13 51 1 3 4 10 9 14 4 4 7 15 7 25 0 9
9 36 19 60 11 24 17 47 15 51 -3 4 -2 8 3 8 4 0 9 15 10 32 2 18 7 34 13 36 5
2 10 12 10 22 0 11 4 29 9 42 12 29 23 60 27 73 2 6 17 49 33 97 17 48 33 95
35 105 2 10 7 29 12 43 4 14 6 27 5 29 -2 2 2 7 7 10 33 21 157 520 177 711 4
36 8 76 10 90 2 14 6 43 9 65 10 73 19 189 20 260 1 39 4 75 6 80 3 6 5 30 5
55 0 26 6 53 15 63 12 14 15 56 15 227 0 116 -3 210 -7 210 -5 0 -8 -4 -8 -10
0 -5 -7 -10 -15 -10 -12 0 -15 15 -15 77 0 48 -4 73 -9 67 -8 -8 -21 -226 -25
-409 -1 -27 -4 -55 -8 -60 -9 -15 -20 -89 -24 -165 -1 -36 -4 -65 -4 -65 -1 0
-4 -25 -6 -55 -4 -76 -5 -83 -16 -97 -5 -7 -7 -20 -4 -30 12 -39 3 -243 -12
-268 -4 -5 -7 -19 -8 -30 -3 -47 -38 -219 -66 -320 -16 -60 -30 -119 -32 -130
-1 -11 -9 -38 -16 -60 -7 -22 -17 -52 -21 -68 -25 -78 -31 -88 -52 -81 -20 6
-20 6 -4 -10 16 -17 15 -52 -2 -81 -3 -5 -6 -16 -8 -24 -5 -35 -27 -71 -43
-71 -10 0 -20 -7 -24 -15 -3 -8 -1 -15 3 -15 17 0 21 -33 9 -66 -7 -19 -15
-34 -20 -34 -4 0 -5 -7 -2 -15 4 -8 2 -21 -4 -28 -6 -6 -13 -30 -17 -52 -4
-22 -13 -51 -20 -65 -7 -14 -15 -39 -18 -55 -7 -42 -48 -168 -58 -181 -5 -6
-10 -25 -12 -42 -2 -18 -7 -35 -10 -39 -4 -3 -7 -15 -7 -25 0 -32 -33 -16 -57
27 -12 22 -29 63 -38 90 -10 28 -22 56 -28 62 -5 7 -6 13 -2 13 4 0 2 7 -5 15
-7 8 -10 15 -6 15 3 0 -3 22 -14 49 -10 27 -16 52 -13 55 4 3 1 6 -5 6 -7 0
-12 11 -12 25 0 13 -12 50 -27 82 -15 32 -28 67 -30 78 -4 25 -24 66 -41 84
-8 8 -12 24 -9 37 3 16 -2 24 -17 28 -11 3 -17 8 -13 12 3 4 -2 19 -11 33 -18
25 -38 68 -40 84 -1 4 -9 21 -18 38 -8 17 -15 47 -13 67 2 45 -9 82 -26 82
-12 0 -35 41 -35 63 0 7 -9 31 -20 52 -11 22 -18 46 -15 53 3 7 1 11 -4 8 -9
-6 -31 45 -31 71 0 8 -7 21 -15 29 -8 9 -15 27 -15 40 0 14 -4 22 -10 19 -6
-3 -10 3 -10 14 0 10 -4 21 -9 23 -10 3 -23 50 -23 81 1 9 -3 17 -9 17 -5 0
-9 6 -9 14 0 8 -3 16 -7 18 -10 4 -55 126 -56 150 -1 9 -6 14 -11 11 -5 -4 -7
3 -4 15 4 12 3 20 -2 17 -6 -4 -120 213 -120 230 0 2 -11 28 -25 57 -13 29
-26 63 -28 75 -2 12 -11 31 -20 41 -9 10 -17 26 -17 35 0 9 -6 20 -13 24 -7 4
-22 42 -34 83 -12 42 -27 89 -33 105 -6 17 -11 31 -11 33 1 1 -6 16 -14 32 -9
17 -13 36 -9 42 4 7 3 8 -4 4 -7 -4 -13 -1 -13 8 -2 17 -5 33 -9 41 -1 3 -3 8
-5 13 -1 4 -7 20 -13 35 -7 16 -9 33 -6 39 4 6 3 8 -3 5 -6 -4 -20 25 -34 66
-13 40 -27 75 -32 78 -4 3 -7 10 -5 15 1 5 -6 25 -17 44 -10 19 -20 40 -21 45
-1 6 -12 33 -25 60 -12 28 -23 52 -23 55 -1 3 -18 37 -38 76 -21 39 -34 74
-31 78 4 3 1 6 -6 6 -7 0 -10 4 -7 9 4 5 1 11 -4 13 -6 2 -12 11 -13 20 -2 9
-8 22 -14 29 -20 26 -74 129 -67 129 4 0 -2 10 -13 23 -30 34 -64 97 -57 108
3 5 0 8 -7 7 -7 -2 -13 2 -14 7 0 6 -9 26 -20 45 -10 19 -33 63 -51 98 -18 35
-37 69 -43 76 -6 7 -8 16 -4 19 3 4 1 7 -6 7 -7 0 -10 4 -7 9 3 5 -1 14 -9 21
-8 7 -15 17 -15 23 0 6 -9 29 -19 51 -37 79 -51 118 -44 130 3 6 2 8 -2 3 -10
-9 -77 151 -69 164 3 5 1 9 -5 9 -5 0 -15 17 -22 38 -6 20 -16 42 -21 49 -5 7
-7 17 -3 23 3 5 2 10 -2 10 -5 0 -14 9 -21 21 -10 15 -10 19 -1 14 6 -4 0 10
-15 31 -14 21 -26 46 -26 55 0 9 -6 19 -14 22 -19 7 -50 73 -41 86 3 6 -1 11
-10 11 -17 0 -65 95 -65 129 0 12 -4 21 -10 21 -5 0 -10 7 -10 15 0 8 -4 15
-10 15 -5 0 -10 6 -10 13 0 7 -9 29 -20 50 -11 20 -20 44 -20 52 0 16 -27 102
-39 125 -4 8 -16 46 -26 84 -14 52 -16 71 -7 74 7 2 12 11 12 21 0 9 6 23 13
30 10 11 6 12 -20 6 -30 -6 -34 -4 -50 29 l-17 36 -403 0 -403 0 0 -53z"/>
<path d="M1741 7013 c2 -31 3 -33 6 -10 4 24 8 27 44 27 21 0 39 5 39 10 0 6
-20 10 -45 10 l-45 0 1 -37z"/>
<path d="M4690 7029 c7 -11 13 -19 14 -17 1 1 8 11 15 21 12 15 11 17 -13 17
-24 0 -26 -2 -16 -21z"/>
<path d="M5850 7040 c0 -5 14 -10 30 -10 17 0 30 5 30 10 0 6 -13 10 -30 10
-16 0 -30 -4 -30 -10z"/>
<path d="M1450 6850 c0 -5 14 -10 30 -10 17 0 30 5 30 10 0 6 -13 10 -30 10
-16 0 -30 -4 -30 -10z"/>
<path d="M3932 6643 c-24 -9 -43 -63 -47 -136 -4 -59 -11 -82 -39 -127 -44
-73 -65 -129 -75 -201 -10 -76 10 -64 28 16 8 34 18 55 26 55 8 0 12 -8 10
-18 -7 -37 -27 -108 -39 -137 -29 -69 -102 -291 -110 -332 -3 -15 -14 -71 -26
-123 -31 -140 -47 -234 -59 -335 -6 -49 -14 -115 -17 -145 -8 -68 -7 -394 2
-433 11 -52 16 -19 20 125 2 122 7 183 14 183 1 0 3 18 5 40 2 22 6 63 9 90 3
28 8 88 11 135 7 115 16 180 27 210 5 14 11 33 13 43 2 10 14 52 25 95 22 79
26 96 35 146 3 16 10 36 14 45 5 9 11 33 15 54 4 20 11 37 16 37 6 0 9 8 8 18
-2 26 13 82 23 82 5 0 9 8 9 18 0 10 11 46 24 79 13 34 27 81 31 105 4 24 9
52 12 63 3 11 5 27 5 35 0 31 30 120 38 115 4 -3 16 -31 25 -63 28 -90 51
-172 69 -237 9 -33 21 -75 27 -94 6 -18 13 -47 16 -65 3 -17 8 -38 13 -46 4
-8 11 -42 14 -75 6 -53 47 -224 63 -265 3 -8 7 -22 8 -30 1 -8 12 -40 23 -70
11 -30 24 -71 28 -90 4 -19 9 -39 10 -45 14 -49 25 -97 30 -135 3 -25 12 -65
20 -90 8 -25 16 -54 17 -65 2 -11 7 -27 10 -35 12 -30 27 -133 20 -143 -3 -6
-1 -7 5 -3 7 4 12 1 12 -7 0 -8 11 -50 25 -93 14 -43 28 -92 31 -108 3 -16 8
-34 12 -40 4 -6 7 -19 8 -28 1 -10 3 -20 4 -23 1 -3 3 -8 4 -12 5 -21 17 -70
21 -88 2 -11 9 -38 15 -60 6 -22 13 -53 16 -70 3 -16 9 -34 13 -40 4 -5 8 -23
9 -40 1 -16 8 -57 16 -90 8 -33 20 -86 26 -117 7 -36 19 -63 31 -71 14 -11 20
-31 25 -83 3 -38 9 -73 12 -79 4 -5 7 -19 8 -30 2 -50 16 -165 26 -215 6 -30
12 -68 13 -85 2 -16 6 -43 10 -59 5 -19 4 -27 -3 -22 -6 4 -8 -2 -5 -14 3 -11
9 -23 14 -26 14 -9 10 -41 -6 -48 -23 -8 -19 -46 5 -46 11 0 21 -6 22 -12 0
-7 2 -24 3 -38 2 -14 4 -27 5 -30 6 -16 20 -123 26 -205 7 -87 8 -88 54 -82
22 3 38 2 36 -1 -2 -4 6 -7 18 -7 18 0 21 5 18 22 -2 13 -1 31 4 40 4 10 8 20
9 23 7 23 40 80 47 80 4 0 8 12 8 26 0 14 3 23 8 20 12 -7 36 16 57 57 14 26
26 37 42 37 27 0 32 20 6 20 -16 1 -15 3 3 18 12 10 25 28 28 40 4 12 10 20
14 18 4 -2 13 2 20 10 7 8 10 14 6 14 -4 0 3 11 16 25 13 14 29 25 36 25 7 0
15 9 19 20 8 24 55 59 73 53 7 -3 12 3 12 14 0 19 38 49 55 44 5 -1 7 1 3 5
-4 4 15 28 42 54 28 26 50 52 50 58 0 6 23 13 52 17 28 4 65 16 81 26 17 10
35 15 40 12 6 -3 7 -1 3 5 -3 6 4 14 16 18 13 4 46 24 76 46 29 21 58 36 64
32 6 -4 8 -3 5 3 -3 5 11 25 33 44 22 19 40 38 40 43 0 12 48 56 61 56 6 0 17
6 25 14 7 8 19 16 24 18 8 2 8 11 1 32 l-11 28 -44 -46 c-24 -26 -52 -46 -64
-46 -14 0 -22 -7 -24 -22 -2 -14 -10 -23 -20 -22 -10 1 -14 -4 -11 -11 2 -7
-5 -16 -16 -20 -12 -3 -27 -12 -33 -18 -27 -26 -75 -56 -102 -63 -15 -3 -30
-13 -33 -20 -3 -8 -9 -11 -14 -8 -8 5 -67 -23 -79 -37 -6 -7 -25 -10 -82 -12
-24 -1 -49 -8 -56 -14 -7 -7 -10 -13 -6 -13 4 0 -1 -9 -11 -20 -14 -16 -20
-17 -27 -8 -5 9 -8 8 -8 -5 0 -19 -126 -144 -141 -140 -5 2 -6 -4 -3 -12 4 -8
2 -15 -4 -15 -9 0 -46 -37 -138 -139 -27 -30 -59 -65 -71 -78 -12 -13 -20 -23
-17 -23 3 0 -1 -6 -8 -14 -24 -26 -49 -61 -69 -94 -22 -38 -39 -34 -39 8 0 16
-5 32 -11 35 -6 4 -8 22 -6 41 3 19 2 36 -2 39 -4 2 -7 25 -7 50 1 25 -2 45
-5 45 -3 0 -12 33 -19 73 -7 39 -15 76 -18 82 -4 5 -8 28 -9 50 -2 22 -10 64
-19 94 -8 29 -13 56 -10 59 3 3 1 11 -6 19 -6 8 -12 26 -14 41 -1 15 -7 45
-13 67 -6 22 -13 63 -17 90 -3 28 -9 61 -14 75 -5 14 -11 48 -14 75 -3 28 -9
68 -15 90 -5 22 -11 49 -14 60 -16 65 -41 142 -51 154 -9 12 -8 13 3 6 11 -6
12 -5 5 6 -10 17 -14 33 -18 77 -1 19 -9 38 -17 43 -12 7 -12 10 0 18 9 6 10
10 2 12 -6 2 -18 29 -26 59 -8 30 -19 56 -24 58 -6 2 -7 10 -4 18 3 8 -1 22
-8 31 -12 14 -12 16 0 8 10 -6 12 -4 6 5 -4 7 -12 29 -17 49 -5 20 -14 54 -19
76 -10 39 -18 70 -22 90 -2 6 -5 15 -9 20 -6 11 -56 209 -64 255 -2 14 -10 51
-18 83 -8 31 -11 57 -8 57 4 0 1 4 -6 8 -7 5 -14 24 -16 43 -2 19 -6 41 -9 49
-3 8 -9 29 -13 45 -4 17 -8 32 -9 35 -1 3 -10 32 -20 65 -21 67 -22 70 -29
105 -12 54 -15 67 -31 120 -9 30 -18 71 -21 90 -2 19 -9 51 -14 70 -8 31 -35
138 -45 180 -10 44 -88 286 -95 295 -15 19 -31 82 -33 130 -2 48 -10 58 -35
48z"/>
<path d="M6302 6610 c0 -19 2 -27 5 -17 2 9 2 25 0 35 -3 9 -5 1 -5 -18z"/>
<path d="M6222 6210 c0 -19 2 -27 5 -17 2 9 2 25 0 35 -3 9 -5 1 -5 -18z"/>
<path d="M3653 5125 c0 -8 4 -12 9 -9 5 3 6 10 3 15 -9 13 -12 11 -12 -6z"/>
<path d="M3651 5080 c-1 -8 -4 -32 -7 -52 -5 -27 -3 -38 6 -38 8 0 11 9 8 25
-3 13 -2 26 2 27 3 2 3 14 -1 28 -4 14 -8 18 -8 10z"/>
<path d="M3641 4954 c0 -11 3 -14 6 -6 3 7 2 16 -1 19 -3 4 -6 -2 -5 -13z"/>
<path d="M6275 4750 l-30 -8 33 -1 c17 0 32 4 32 9 0 6 -1 9 -2 9 -2 -1 -16
-5 -33 -9z"/>
<path d="M3590 4623 c0 -36 3 -63 7 -60 9 10 10 127 1 127 -5 0 -8 -30 -8 -67z"/>
<path d="M6301 4674 c0 -11 3 -14 6 -6 3 7 2 16 -1 19 -3 4 -6 -2 -5 -13z"/>
<path d="M6380 4609 c0 -16 4 -28 9 -25 8 5 3 56 -5 56 -2 0 -4 -14 -4 -31z"/>
<path d="M6183 4583 c9 -2 25 -2 35 0 9 3 1 5 -18 5 -19 0 -27 -2 -17 -5z"/>
<path d="M6023 3863 c9 -2 25 -2 35 0 9 3 1 5 -18 5 -19 0 -27 -2 -17 -5z"/>
<path d="M5742 3730 c0 -19 2 -27 5 -17 2 9 2 25 0 35 -3 9 -5 1 -5 -18z"/>
<path d="M5460 3620 c-11 -8 -7 -9 15 -4 37 8 45 14 19 14 -10 0 -26 -5 -34
-10z"/>
<path d="M5390 3010 c0 -16 5 -30 10 -30 6 0 10 14 10 30 0 17 -4 30 -10 30
-5 0 -10 -13 -10 -30z"/>
<path d="M2903 2713 c9 -2 25 -2 35 0 9 3 1 5 -18 5 -19 0 -27 -2 -17 -5z"/>
<path d="M2970 2616 c0 -22 -5 -25 -42 -29 l-43 -4 48 -1 c46 -2 47 -1 47 28
0 17 -2 30 -5 30 -3 0 -5 -11 -5 -24z"/>
<path d="M4743 2583 c9 -2 25 -2 35 0 9 3 1 5 -18 5 -19 0 -27 -2 -17 -5z"/>
<path d="M3982 2530 c0 -19 2 -27 5 -17 2 9 2 25 0 35 -3 9 -5 1 -5 -18z"/>
<path d="M4263 2503 c9 -2 25 -2 35 0 9 3 1 5 -18 5 -19 0 -27 -2 -17 -5z"/>
<path d="M3863 2423 c9 -2 25 -2 35 0 9 3 1 5 -18 5 -19 0 -27 -2 -17 -5z"/>
<path d="M0 2110 c0 -5 16 -10 35 -10 19 0 35 5 35 10 0 6 -16 10 -35 10 -19
0 -35 -4 -35 -10z"/>
<path d="M0 1950 c0 -5 16 -10 35 -10 19 0 35 5 35 10 0 6 -16 10 -35 10 -19
0 -35 -4 -35 -10z"/>
<path d="M572 1490 c0 -19 2 -27 5 -17 2 9 2 25 0 35 -3 9 -5 1 -5 -18z"/>
<path d="M7130 1505 c0 -8 -7 -15 -15 -15 -8 0 -15 -7 -15 -15 0 -8 9 -15 20
-15 16 0 20 7 20 30 0 17 -2 30 -5 30 -3 0 -5 -7 -5 -15z"/>
<path d="M570 1330 c0 -16 5 -30 10 -30 6 0 10 14 10 30 0 17 -4 30 -10 30 -5
0 -10 -13 -10 -30z"/>
<path d="M7130 1270 c0 -5 14 -10 30 -10 17 0 30 5 30 10 0 6 -13 10 -30 10
-16 0 -30 -4 -30 -10z"/>
<path d="M7050 1230 c0 -5 14 -10 30 -10 17 0 30 5 30 10 0 6 -13 10 -30 10
-16 0 -30 -4 -30 -10z"/>
<path d="M770 1190 c0 -5 5 -10 10 -10 6 0 10 5 10 10 0 6 -4 10 -10 10 -5 0
-10 -4 -10 -10z"/>
<path d="M730 1150 c0 -5 5 -10 10 -10 6 0 10 5 10 10 0 6 -4 10 -10 10 -5 0
-10 -4 -10 -10z"/>
<path d="M970 1090 c0 -5 14 -10 30 -10 17 0 30 5 30 10 0 6 -13 10 -30 10
-16 0 -30 -4 -30 -10z"/>
<path d="M810 1070 c0 -5 14 -10 30 -10 17 0 30 5 30 10 0 6 -13 10 -30 10
-16 0 -30 -4 -30 -10z"/>
<path d="M1050 1070 c0 -5 14 -10 30 -10 17 0 30 5 30 10 0 6 -13 10 -30 10
-16 0 -30 -4 -30 -10z"/>
<path d="M1303 953 c9 -2 25 -2 35 0 9 3 1 5 -18 5 -19 0 -27 -2 -17 -5z"/>
<path d="M7090 950 c0 -5 5 -10 10 -10 6 0 10 5 10 10 0 6 -4 10 -10 10 -5 0
-10 -4 -10 -10z"/>
<path d="M7050 910 c0 -5 5 -10 10 -10 6 0 10 5 10 10 0 6 -4 10 -10 10 -5 0
-10 -4 -10 -10z"/>
<path d="M970 870 c0 -5 5 -10 10 -10 6 0 10 5 10 10 0 6 -4 10 -10 10 -5 0
-10 -4 -10 -10z"/>
<path d="M1230 850 c0 -16 5 -30 10 -30 6 0 10 14 10 30 0 17 -4 30 -10 30 -5
0 -10 -13 -10 -30z"/>
<path d="M1010 830 c0 -5 5 -10 10 -10 6 0 10 5 10 10 0 6 -4 10 -10 10 -5 0
-10 -4 -10 -10z"/>
<path d="M1130 750 c0 -5 14 -10 30 -10 17 0 30 5 30 10 0 6 -13 10 -30 10
-16 0 -30 -4 -30 -10z"/>
<path d="M1303 753 c9 -2 25 -2 35 0 9 3 1 5 -18 5 -19 0 -27 -2 -17 -5z"/>
<path d="M1450 730 c0 -27 3 -30 30 -30 27 0 30 3 30 30 0 27 -3 30 -30 30
-27 0 -30 -3 -30 -30z"/>
<path d="M6583 663 c9 -2 25 -2 35 0 9 3 1 5 -18 5 -19 0 -27 -2 -17 -5z"/>
<path d="M1130 630 c0 -5 14 -10 30 -10 17 0 30 5 30 10 0 6 -13 10 -30 10
-16 0 -30 -4 -30 -10z"/>
<path d="M1410 630 c0 -5 14 -10 30 -10 17 0 30 5 30 10 0 6 -13 10 -30 10
-16 0 -30 -4 -30 -10z"/>
<path d="M6650 630 c0 -5 5 -10 10 -10 6 0 10 5 10 10 0 6 -4 10 -10 10 -5 0
-10 -4 -10 -10z"/>
</g>
</svg>
